<svg width="528" height="165" viewBox="0 0 528 165" fill="none" xmlns="http://www.w3.org/2000/svg">
<circle cx="13.4211" cy="120.936" r="4" fill="#D9D9D9"/>
<circle cx="136.421" cy="42.936" r="4" fill="#D9D9D9"/>
<path d="M13.9211 120.936C52.1543 57.2744 77.8918 37.8453 136.421 42.936" stroke="white" stroke-width="0.5"/>
<path d="M138.513 33.5423C143.086 35.2552 144.555 37.1704 145.74 41.8351" stroke="white" stroke-width="0.5"/>
<path d="M139.405 29.1178C146.264 31.6871 148.467 34.5599 150.245 41.557" stroke="white" stroke-width="0.5"/>
<path d="M138.752 23.8836C149.04 27.7376 152.345 32.0469 155.012 42.5424" stroke="white" stroke-width="0.5"/>
<path d="M316.956 32.5423C312.384 34.2552 310.915 36.1704 309.729 40.8351" stroke="white" stroke-width="0.5"/>
<path d="M316.065 28.1178C309.206 30.6871 307.003 33.5599 305.225 40.557" stroke="white" stroke-width="0.5"/>
<path d="M316.718 22.8836C306.43 26.7376 303.125 31.0469 300.457 41.5424" stroke="white" stroke-width="0.5"/>
<path d="M159.049 20.3883C216.229 -6.65577 246.466 -5.56585 296.422 19.5428" stroke="white" stroke-width="0.5" stroke-dasharray="10 10"/>
<path d="M57.2803 134.036C52.7577 134.036 48.5337 133.481 44.6083 132.372C40.683 131.263 37.1843 129.727 34.1123 127.764C31.0403 125.716 28.4803 123.455 26.4323 120.98C24.4697 118.505 23.1897 115.903 22.5923 113.172L39.7443 108.052C40.8537 110.953 42.8163 113.471 45.6323 115.604C48.4483 117.652 51.9897 118.719 56.2563 118.804C60.779 118.889 64.4483 117.908 67.2643 115.86C70.1657 113.812 71.6163 111.167 71.6163 107.924C71.6163 105.108 70.4643 102.761 68.1603 100.884C65.9417 98.9213 62.8697 97.428 58.9443 96.404L47.2963 93.332C42.9443 92.2227 39.1043 90.5587 35.7763 88.34C32.4483 86.036 29.8457 83.22 27.9683 79.892C26.091 76.564 25.1523 72.6813 25.1523 68.244C25.1523 59.796 27.9257 53.2253 33.4723 48.532C39.1043 43.7533 47.0403 41.364 57.2803 41.364C62.9977 41.364 67.9897 42.2173 72.2563 43.924C76.6083 45.5453 80.235 47.892 83.1363 50.964C86.0377 54.036 88.2563 57.6627 89.7923 61.844L72.7683 67.092C71.7443 64.1907 69.867 61.716 67.1363 59.668C64.4057 57.62 60.9497 56.596 56.7683 56.596C52.5017 56.596 49.131 57.5773 46.6563 59.54C44.267 61.5027 43.0723 64.276 43.0723 67.86C43.0723 70.676 44.011 72.8947 45.8883 74.516C47.851 76.1373 50.4963 77.3747 53.8243 78.228L65.6003 81.172C73.2803 83.0493 79.2537 86.42 83.5203 91.284C87.787 96.148 89.9203 101.567 89.9203 107.54C89.9203 112.831 88.6403 117.481 86.0803 121.492C83.5203 125.417 79.8083 128.489 74.9443 130.708C70.0803 132.927 64.1923 134.036 57.2803 134.036ZM131.446 134.036C125.132 134.036 119.542 132.628 114.678 129.812C109.814 126.911 105.974 122.943 103.158 117.908C100.428 112.873 99.0623 107.071 99.0623 100.5C99.0623 93.9293 100.47 88.1267 103.286 83.092C106.188 78.0573 110.113 74.132 115.062 71.316C120.097 68.4147 125.857 66.964 132.342 66.964C137.974 66.964 143.137 68.4573 147.83 71.444C152.609 74.3453 156.406 78.6547 159.222 84.372C162.124 90.004 163.574 96.8733 163.574 104.98H115.062L116.598 103.444C116.598 106.601 117.366 109.375 118.902 111.764C120.524 114.068 122.572 115.86 125.046 117.14C127.606 118.335 130.337 118.932 133.238 118.932C136.737 118.932 139.596 118.207 141.814 116.756C144.033 115.22 145.74 113.257 146.934 110.868L162.038 116.756C160.246 120.34 157.9 123.455 154.998 126.1C152.182 128.66 148.812 130.623 144.886 131.988C140.961 133.353 136.481 134.036 131.446 134.036ZM117.494 93.972L115.958 92.436H146.806L145.398 93.972C145.398 90.9 144.673 88.468 143.222 86.676C141.772 84.7987 139.98 83.4333 137.846 82.58C135.798 81.7267 133.793 81.3 131.83 81.3C129.868 81.3 127.777 81.7267 125.558 82.58C123.34 83.4333 121.42 84.7987 119.798 86.676C118.262 88.468 117.494 90.9 117.494 93.972ZM173.393 132.5V68.5H189.265L190.289 80.276V132.5H173.393ZM215.761 132.5V99.732H232.657V132.5H215.761ZM215.761 99.732C215.761 95.38 215.249 92.0093 214.225 89.62C213.287 87.2307 211.921 85.524 210.129 84.5C208.337 83.3907 206.247 82.836 203.857 82.836C199.505 82.7507 196.135 84.0733 193.745 86.804C191.441 89.5347 190.289 93.588 190.289 98.964H184.657C184.657 92.1373 185.639 86.3773 187.601 81.684C189.649 76.9053 192.465 73.2787 196.049 70.804C199.719 68.244 203.985 66.964 208.849 66.964C213.884 66.964 218.193 67.988 221.777 70.036C225.361 72.084 228.092 75.284 229.969 79.636C231.847 83.9027 232.743 89.4493 232.657 96.276V99.732H215.761ZM270.079 134.036C265.983 134.036 262.143 133.439 258.559 132.244C254.975 130.964 251.818 129.172 249.087 126.868C246.357 124.479 244.223 121.577 242.687 118.164L257.151 111.508C258.431 113.556 260.181 115.348 262.399 116.884C264.618 118.335 267.178 119.06 270.079 119.06C272.895 119.06 275.071 118.676 276.607 117.908C278.143 117.055 278.911 115.86 278.911 114.324C278.911 112.788 278.271 111.679 276.991 110.996C275.797 110.228 274.133 109.588 271.999 109.076L266.111 107.54C259.967 105.919 255.103 103.359 251.519 99.86C248.021 96.276 246.271 92.18 246.271 87.572C246.271 81.0013 248.362 75.924 252.543 72.34C256.81 68.756 262.826 66.964 270.591 66.964C274.602 66.964 278.314 67.5613 281.727 68.756C285.226 69.9507 288.213 71.6147 290.687 73.748C293.162 75.8813 294.869 78.356 295.807 81.172L281.855 87.572C281.258 85.8653 279.807 84.5 277.503 83.476C275.199 82.3667 272.895 81.812 270.591 81.812C268.287 81.812 266.495 82.324 265.215 83.348C264.021 84.2867 263.423 85.6093 263.423 87.316C263.423 88.4253 264.021 89.364 265.215 90.132C266.41 90.8147 268.117 91.412 270.335 91.924L278.655 93.972C282.837 94.996 286.165 96.66 288.639 98.964C291.199 101.183 293.034 103.7 294.143 106.516C295.338 109.247 295.935 111.935 295.935 114.58C295.935 118.42 294.783 121.833 292.479 124.82C290.261 127.721 287.189 129.983 283.263 131.604C279.423 133.225 275.029 134.036 270.079 134.036ZM334.696 134.036C328.382 134.036 322.792 132.628 317.928 129.812C313.064 126.911 309.224 122.943 306.408 117.908C303.678 112.873 302.312 107.071 302.312 100.5C302.312 93.9293 303.72 88.1267 306.536 83.092C309.438 78.0573 313.363 74.132 318.312 71.316C323.347 68.4147 329.107 66.964 335.592 66.964C341.224 66.964 346.387 68.4573 351.08 71.444C355.859 74.3453 359.656 78.6547 362.472 84.372C365.374 90.004 366.824 96.8733 366.824 104.98H318.312L319.848 103.444C319.848 106.601 320.616 109.375 322.152 111.764C323.774 114.068 325.822 115.86 328.296 117.14C330.856 118.335 333.587 118.932 336.488 118.932C339.987 118.932 342.846 118.207 345.064 116.756C347.283 115.22 348.99 113.257 350.184 110.868L365.288 116.756C363.496 120.34 361.15 123.455 358.248 126.1C355.432 128.66 352.062 130.623 348.136 131.988C344.211 133.353 339.731 134.036 334.696 134.036ZM320.744 93.972L319.208 92.436H350.056L348.648 93.972C348.648 90.9 347.923 88.468 346.472 86.676C345.022 84.7987 343.23 83.4333 341.096 82.58C339.048 81.7267 337.043 81.3 335.08 81.3C333.118 81.3 331.027 81.7267 328.808 82.58C326.59 83.4333 324.67 84.7987 323.048 86.676C321.512 88.468 320.744 90.9 320.744 93.972ZM377.667 132.5V68.5H394.563V132.5H377.667ZM386.115 58.132C383.555 58.132 381.294 57.1933 379.331 55.316C377.369 53.3533 376.387 51.0493 376.387 48.404C376.387 45.7587 377.369 43.4973 379.331 41.62C381.294 39.6573 383.555 38.676 386.115 38.676C388.761 38.676 391.022 39.6573 392.899 41.62C394.862 43.4973 395.843 45.7587 395.843 48.404C395.843 51.0493 394.862 53.3533 392.899 55.316C391.022 57.1933 388.761 58.132 386.115 58.132ZM416.543 132.5V62.1C416.543 55.2733 418.293 49.9827 421.791 46.228C425.29 42.388 430.623 40.468 437.791 40.468C440.266 40.468 442.869 40.8947 445.599 41.748C448.415 42.6013 450.975 43.6253 453.279 44.82L447.007 56.98C445.642 56.2973 444.405 55.7853 443.295 55.444C442.186 55.1027 441.162 54.932 440.223 54.932C437.919 54.932 436.213 55.7427 435.103 57.364C433.994 58.9 433.439 61.4173 433.439 64.916V132.5H416.543ZM405.919 82.068V68.5H449.183V82.068H405.919ZM473.193 159.636C470.889 159.636 468.329 159.167 465.513 158.228C462.783 157.375 460.351 156.351 458.217 155.156L464.489 141.46C465.94 142.228 467.263 142.825 468.457 143.252C469.737 143.764 470.847 144.02 471.785 144.02C473.577 144.02 475.156 143.508 476.521 142.484C477.887 141.545 478.996 140.137 479.849 138.26L487.401 120.468L507.753 68.5H526.313L497.257 138.004C495.465 142.271 493.588 146.025 491.625 149.268C489.663 152.596 487.231 155.156 484.329 156.948C481.513 158.74 477.801 159.636 473.193 159.636ZM482.921 132.5L453.609 68.5H472.169L493.545 120.468L499.049 132.5H482.921Z" fill="#2377D7"/>
</svg>
