<svg width="510" height="163" viewBox="0 0 510 163" fill="none" xmlns="http://www.w3.org/2000/svg">
<circle cx="90" cy="44.5" r="3.5" fill="#D9D9D9" stroke="#D9D9D9"/>
<path d="M91 36.65C95.5727 38.3628 97.0414 40.2781 98.227 44.9428" stroke="#D9D9D9"/>
<path d="M91.8912 32.2255C98.7503 34.7947 100.953 37.6676 102.732 44.6647" stroke="#D9D9D9"/>
<path d="M91.2383 26.9913C101.527 30.8452 104.831 35.1546 107.499 45.6501" stroke="#D9D9D9"/>
<path d="M362.484 32.5423C357.911 34.2552 356.443 36.1704 355.257 40.8351" stroke="#D9D9D9"/>
<path d="M361.593 28.1178C354.734 30.6871 352.531 33.5599 350.752 40.557" stroke="#D9D9D9"/>
<path d="M362.246 22.8836C351.957 26.7376 348.653 31.0469 345.985 41.5424" stroke="#D9D9D9"/>
<path d="M109.75 30.532C206.458 -9.8123 257.58 -8.22671 342.008 29.1026" stroke="#D9D9D9" stroke-dasharray="10 10"/>
<path d="M39.808 132.036C35.2853 132.036 31.0613 131.481 27.136 130.372C23.2107 129.263 19.712 127.727 16.64 125.764C13.568 123.716 11.008 121.455 8.96 118.98C6.99733 116.505 5.71733 113.903 5.12 111.172L22.272 106.052C23.3813 108.953 25.344 111.471 28.16 113.604C30.976 115.652 34.5173 116.719 38.784 116.804C43.3067 116.889 46.976 115.908 49.792 113.86C52.6933 111.812 54.144 109.167 54.144 105.924C54.144 103.108 52.992 100.761 50.688 98.884C48.4693 96.9213 45.3973 95.428 41.472 94.404L29.824 91.332C25.472 90.2227 21.632 88.5587 18.304 86.34C14.976 84.036 12.3733 81.22 10.496 77.892C8.61867 74.564 7.68 70.6813 7.68 66.244C7.68 57.796 10.4533 51.2253 16 46.532C21.632 41.7533 29.568 39.364 39.808 39.364C45.5253 39.364 50.5173 40.2173 54.784 41.924C59.136 43.5453 62.7627 45.892 65.664 48.964C68.5653 52.036 70.784 55.6627 72.32 59.844L55.296 65.092C54.272 62.1907 52.3947 59.716 49.664 57.668C46.9333 55.62 43.4773 54.596 39.296 54.596C35.0293 54.596 31.6587 55.5773 29.184 57.54C26.7947 59.5027 25.6 62.276 25.6 65.86C25.6 68.676 26.5387 70.8947 28.416 72.516C30.3787 74.1373 33.024 75.3747 36.352 76.228L48.128 79.172C55.808 81.0493 61.7813 84.42 66.048 89.284C70.3147 94.148 72.448 99.5667 72.448 105.54C72.448 110.831 71.168 115.481 68.608 119.492C66.048 123.417 62.336 126.489 57.472 128.708C52.608 130.927 46.72 132.036 39.808 132.036ZM113.974 132.036C107.659 132.036 102.07 130.628 97.206 127.812C92.342 124.911 88.502 120.943 85.686 115.908C82.9553 110.873 81.59 105.071 81.59 98.5C81.59 91.9293 82.998 86.1267 85.814 81.092C88.7153 76.0573 92.6407 72.132 97.59 69.316C102.625 66.4147 108.385 64.964 114.87 64.964C120.502 64.964 125.665 66.4573 130.358 69.444C135.137 72.3453 138.934 76.6547 141.75 82.372C144.651 88.004 146.102 94.8733 146.102 102.98H97.59L99.126 101.444C99.126 104.601 99.894 107.375 101.43 109.764C103.051 112.068 105.099 113.86 107.574 115.14C110.134 116.335 112.865 116.932 115.766 116.932C119.265 116.932 122.123 116.207 124.342 114.756C126.561 113.22 128.267 111.257 129.462 108.868L144.566 114.756C142.774 118.34 140.427 121.455 137.526 124.1C134.71 126.66 131.339 128.623 127.414 129.988C123.489 131.353 119.009 132.036 113.974 132.036ZM100.022 91.972L98.486 90.436H129.334L127.926 91.972C127.926 88.9 127.201 86.468 125.75 84.676C124.299 82.7987 122.507 81.4333 120.374 80.58C118.326 79.7267 116.321 79.3 114.358 79.3C112.395 79.3 110.305 79.7267 108.086 80.58C105.867 81.4333 103.947 82.7987 102.326 84.676C100.79 86.468 100.022 88.9 100.022 91.972ZM155.921 130.5V66.5H171.793L172.817 78.276V130.5H155.921ZM198.289 130.5V97.732H215.185V130.5H198.289ZM198.289 97.732C198.289 93.38 197.777 90.0093 196.753 87.62C195.814 85.2307 194.449 83.524 192.657 82.5C190.865 81.3907 188.774 80.836 186.385 80.836C182.033 80.7507 178.662 82.0733 176.273 84.804C173.969 87.5347 172.817 91.588 172.817 96.964H167.185C167.185 90.1373 168.166 84.3773 170.129 79.684C172.177 74.9053 174.993 71.2787 178.577 68.804C182.246 66.244 186.513 64.964 191.377 64.964C196.412 64.964 200.721 65.988 204.305 68.036C207.889 70.084 210.62 73.284 212.497 77.636C214.374 81.9027 215.27 87.4493 215.185 94.276V97.732H198.289ZM252.607 132.036C248.511 132.036 244.671 131.439 241.087 130.244C237.503 128.964 234.346 127.172 231.615 124.868C228.884 122.479 226.751 119.577 225.215 116.164L239.679 109.508C240.959 111.556 242.708 113.348 244.927 114.884C247.146 116.335 249.706 117.06 252.607 117.06C255.423 117.06 257.599 116.676 259.135 115.908C260.671 115.055 261.439 113.86 261.439 112.324C261.439 110.788 260.799 109.679 259.519 108.996C258.324 108.228 256.66 107.588 254.527 107.076L248.639 105.54C242.495 103.919 237.631 101.359 234.047 97.86C230.548 94.276 228.799 90.18 228.799 85.572C228.799 79.0013 230.89 73.924 235.071 70.34C239.338 66.756 245.354 64.964 253.119 64.964C257.13 64.964 260.842 65.5613 264.255 66.756C267.754 67.9507 270.74 69.6147 273.215 71.748C275.69 73.8813 277.396 76.356 278.335 79.172L264.383 85.572C263.786 83.8653 262.335 82.5 260.031 81.476C257.727 80.3667 255.423 79.812 253.119 79.812C250.815 79.812 249.023 80.324 247.743 81.348C246.548 82.2867 245.951 83.6093 245.951 85.316C245.951 86.4253 246.548 87.364 247.743 88.132C248.938 88.8147 250.644 89.412 252.863 89.924L261.183 91.972C265.364 92.996 268.692 94.66 271.167 96.964C273.727 99.1827 275.562 101.7 276.671 104.516C277.866 107.247 278.463 109.935 278.463 112.58C278.463 116.42 277.311 119.833 275.007 122.82C272.788 125.721 269.716 127.983 265.791 129.604C261.951 131.225 257.556 132.036 252.607 132.036ZM317.224 132.036C310.909 132.036 305.32 130.628 300.456 127.812C295.592 124.911 291.752 120.943 288.936 115.908C286.205 110.873 284.84 105.071 284.84 98.5C284.84 91.9293 286.248 86.1267 289.064 81.092C291.965 76.0573 295.891 72.132 300.84 69.316C305.875 66.4147 311.635 64.964 318.12 64.964C323.752 64.964 328.915 66.4573 333.608 69.444C338.387 72.3453 342.184 76.6547 345 82.372C347.901 88.004 349.352 94.8733 349.352 102.98H300.84L302.376 101.444C302.376 104.601 303.144 107.375 304.68 109.764C306.301 112.068 308.349 113.86 310.824 115.14C313.384 116.335 316.115 116.932 319.016 116.932C322.515 116.932 325.373 116.207 327.592 114.756C329.811 113.22 331.517 111.257 332.712 108.868L347.816 114.756C346.024 118.34 343.677 121.455 340.776 124.1C337.96 126.66 334.589 128.623 330.664 129.988C326.739 131.353 322.259 132.036 317.224 132.036ZM303.272 91.972L301.736 90.436H332.584L331.176 91.972C331.176 88.9 330.451 86.468 329 84.676C327.549 82.7987 325.757 81.4333 323.624 80.58C321.576 79.7267 319.571 79.3 317.608 79.3C315.645 79.3 313.555 79.7267 311.336 80.58C309.117 81.4333 307.197 82.7987 305.576 84.676C304.04 86.468 303.272 88.9 303.272 91.972ZM360.195 130.5V66.5H377.091V130.5H360.195ZM368.643 56.132C366.083 56.132 363.822 55.1933 361.859 53.316C359.896 51.3533 358.915 49.0493 358.915 46.404C358.915 43.7587 359.896 41.4973 361.859 39.62C363.822 37.6573 366.083 36.676 368.643 36.676C371.288 36.676 373.55 37.6573 375.427 39.62C377.39 41.4973 378.371 43.7587 378.371 46.404C378.371 49.0493 377.39 51.3533 375.427 53.316C373.55 55.1933 371.288 56.132 368.643 56.132ZM399.071 130.5V60.1C399.071 53.2733 400.82 47.9827 404.319 44.228C407.818 40.388 413.151 38.468 420.319 38.468C422.794 38.468 425.396 38.8947 428.127 39.748C430.943 40.6013 433.503 41.6253 435.807 42.82L429.535 54.98C428.17 54.2973 426.932 53.7853 425.823 53.444C424.714 53.1027 423.69 52.932 422.751 52.932C420.447 52.932 418.74 53.7427 417.631 55.364C416.522 56.9 415.967 59.4173 415.967 62.916V130.5H399.071ZM388.447 80.068V66.5H431.711V80.068H388.447ZM455.721 157.636C453.417 157.636 450.857 157.167 448.041 156.228C445.31 155.375 442.878 154.351 440.745 153.156L447.017 139.46C448.468 140.228 449.79 140.825 450.985 141.252C452.265 141.764 453.374 142.02 454.313 142.02C456.105 142.02 457.684 141.508 459.049 140.484C460.414 139.545 461.524 138.137 462.377 136.26L469.929 118.468L490.281 66.5H508.841L479.785 136.004C477.993 140.271 476.116 144.025 474.153 147.268C472.19 150.596 469.758 153.156 466.857 154.948C464.041 156.74 460.329 157.636 455.721 157.636ZM465.449 130.5L436.137 66.5H454.697L476.073 118.468L481.577 130.5H465.449Z" fill="#0BB6E0"/>
</svg>
