<svg width="510" height="164" viewBox="0 0 510 164" fill="none" xmlns="http://www.w3.org/2000/svg">
<circle cx="90" cy="44.5" r="4" fill="#D9D9D9"/>
<path d="M91 36.65C95.5727 38.3628 97.0414 40.2781 98.227 44.9428" stroke="white"/>
<path d="M91.8912 32.2255C98.7503 34.7947 100.953 37.6676 102.732 44.6647" stroke="white"/>
<path d="M91.2383 26.9913C101.527 30.8452 104.831 35.1546 107.499 45.6501" stroke="white"/>
<path d="M362.484 32.5423C357.911 34.2552 356.443 36.1704 355.257 40.8351" stroke="white"/>
<path d="M361.593 28.1178C354.734 30.6871 352.531 33.5599 350.752 40.557" stroke="white"/>
<path d="M362.246 22.8836C351.957 26.7376 348.653 31.0469 345.985 41.5424" stroke="white"/>
<path d="M109.75 30.532C206.458 -9.8123 257.58 -8.22671 342.008 29.1026" stroke="white" stroke-dasharray="10 10"/>
<path d="M39.808 133.036C35.2853 133.036 31.0613 132.481 27.136 131.372C23.2107 130.263 19.712 128.727 16.64 126.764C13.568 124.716 11.008 122.455 8.96 119.98C6.99733 117.505 5.71733 114.903 5.12 112.172L22.272 107.052C23.3813 109.953 25.344 112.471 28.16 114.604C30.976 116.652 34.5173 117.719 38.784 117.804C43.3067 117.889 46.976 116.908 49.792 114.86C52.6933 112.812 54.144 110.167 54.144 106.924C54.144 104.108 52.992 101.761 50.688 99.884C48.4693 97.9213 45.3973 96.428 41.472 95.404L29.824 92.332C25.472 91.2227 21.632 89.5587 18.304 87.34C14.976 85.036 12.3733 82.22 10.496 78.892C8.61867 75.564 7.68 71.6813 7.68 67.244C7.68 58.796 10.4533 52.2253 16 47.532C21.632 42.7533 29.568 40.364 39.808 40.364C45.5253 40.364 50.5173 41.2173 54.784 42.924C59.136 44.5453 62.7627 46.892 65.664 49.964C68.5653 53.036 70.784 56.6627 72.32 60.844L55.296 66.092C54.272 63.1907 52.3947 60.716 49.664 58.668C46.9333 56.62 43.4773 55.596 39.296 55.596C35.0293 55.596 31.6587 56.5773 29.184 58.54C26.7947 60.5027 25.6 63.276 25.6 66.86C25.6 69.676 26.5387 71.8947 28.416 73.516C30.3787 75.1373 33.024 76.3747 36.352 77.228L48.128 80.172C55.808 82.0493 61.7813 85.42 66.048 90.284C70.3147 95.148 72.448 100.567 72.448 106.54C72.448 111.831 71.168 116.481 68.608 120.492C66.048 124.417 62.336 127.489 57.472 129.708C52.608 131.927 46.72 133.036 39.808 133.036ZM113.974 133.036C107.659 133.036 102.07 131.628 97.206 128.812C92.342 125.911 88.502 121.943 85.686 116.908C82.9553 111.873 81.59 106.071 81.59 99.5C81.59 92.9293 82.998 87.1267 85.814 82.092C88.7153 77.0573 92.6407 73.132 97.59 70.316C102.625 67.4147 108.385 65.964 114.87 65.964C120.502 65.964 125.665 67.4573 130.358 70.444C135.137 73.3453 138.934 77.6547 141.75 83.372C144.651 89.004 146.102 95.8733 146.102 103.98H97.59L99.126 102.444C99.126 105.601 99.894 108.375 101.43 110.764C103.051 113.068 105.099 114.86 107.574 116.14C110.134 117.335 112.865 117.932 115.766 117.932C119.265 117.932 122.123 117.207 124.342 115.756C126.561 114.22 128.267 112.257 129.462 109.868L144.566 115.756C142.774 119.34 140.427 122.455 137.526 125.1C134.71 127.66 131.339 129.623 127.414 130.988C123.489 132.353 119.009 133.036 113.974 133.036ZM100.022 92.972L98.486 91.436H129.334L127.926 92.972C127.926 89.9 127.201 87.468 125.75 85.676C124.299 83.7987 122.507 82.4333 120.374 81.58C118.326 80.7267 116.321 80.3 114.358 80.3C112.395 80.3 110.305 80.7267 108.086 81.58C105.867 82.4333 103.947 83.7987 102.326 85.676C100.79 87.468 100.022 89.9 100.022 92.972ZM155.921 131.5V67.5H171.793L172.817 79.276V131.5H155.921ZM198.289 131.5V98.732H215.185V131.5H198.289ZM198.289 98.732C198.289 94.38 197.777 91.0093 196.753 88.62C195.814 86.2307 194.449 84.524 192.657 83.5C190.865 82.3907 188.774 81.836 186.385 81.836C182.033 81.7507 178.662 83.0733 176.273 85.804C173.969 88.5347 172.817 92.588 172.817 97.964H167.185C167.185 91.1373 168.166 85.3773 170.129 80.684C172.177 75.9053 174.993 72.2787 178.577 69.804C182.246 67.244 186.513 65.964 191.377 65.964C196.412 65.964 200.721 66.988 204.305 69.036C207.889 71.084 210.62 74.284 212.497 78.636C214.374 82.9027 215.27 88.4493 215.185 95.276V98.732H198.289ZM252.607 133.036C248.511 133.036 244.671 132.439 241.087 131.244C237.503 129.964 234.346 128.172 231.615 125.868C228.884 123.479 226.751 120.577 225.215 117.164L239.679 110.508C240.959 112.556 242.708 114.348 244.927 115.884C247.146 117.335 249.706 118.06 252.607 118.06C255.423 118.06 257.599 117.676 259.135 116.908C260.671 116.055 261.439 114.86 261.439 113.324C261.439 111.788 260.799 110.679 259.519 109.996C258.324 109.228 256.66 108.588 254.527 108.076L248.639 106.54C242.495 104.919 237.631 102.359 234.047 98.86C230.548 95.276 228.799 91.18 228.799 86.572C228.799 80.0013 230.89 74.924 235.071 71.34C239.338 67.756 245.354 65.964 253.119 65.964C257.13 65.964 260.842 66.5613 264.255 67.756C267.754 68.9507 270.74 70.6147 273.215 72.748C275.69 74.8813 277.396 77.356 278.335 80.172L264.383 86.572C263.786 84.8653 262.335 83.5 260.031 82.476C257.727 81.3667 255.423 80.812 253.119 80.812C250.815 80.812 249.023 81.324 247.743 82.348C246.548 83.2867 245.951 84.6093 245.951 86.316C245.951 87.4253 246.548 88.364 247.743 89.132C248.938 89.8147 250.644 90.412 252.863 90.924L261.183 92.972C265.364 93.996 268.692 95.66 271.167 97.964C273.727 100.183 275.562 102.7 276.671 105.516C277.866 108.247 278.463 110.935 278.463 113.58C278.463 117.42 277.311 120.833 275.007 123.82C272.788 126.721 269.716 128.983 265.791 130.604C261.951 132.225 257.556 133.036 252.607 133.036ZM317.224 133.036C310.909 133.036 305.32 131.628 300.456 128.812C295.592 125.911 291.752 121.943 288.936 116.908C286.205 111.873 284.84 106.071 284.84 99.5C284.84 92.9293 286.248 87.1267 289.064 82.092C291.965 77.0573 295.891 73.132 300.84 70.316C305.875 67.4147 311.635 65.964 318.12 65.964C323.752 65.964 328.915 67.4573 333.608 70.444C338.387 73.3453 342.184 77.6547 345 83.372C347.901 89.004 349.352 95.8733 349.352 103.98H300.84L302.376 102.444C302.376 105.601 303.144 108.375 304.68 110.764C306.301 113.068 308.349 114.86 310.824 116.14C313.384 117.335 316.115 117.932 319.016 117.932C322.515 117.932 325.373 117.207 327.592 115.756C329.811 114.22 331.517 112.257 332.712 109.868L347.816 115.756C346.024 119.34 343.677 122.455 340.776 125.1C337.96 127.66 334.589 129.623 330.664 130.988C326.739 132.353 322.259 133.036 317.224 133.036ZM303.272 92.972L301.736 91.436H332.584L331.176 92.972C331.176 89.9 330.451 87.468 329 85.676C327.549 83.7987 325.757 82.4333 323.624 81.58C321.576 80.7267 319.571 80.3 317.608 80.3C315.645 80.3 313.555 80.7267 311.336 81.58C309.117 82.4333 307.197 83.7987 305.576 85.676C304.04 87.468 303.272 89.9 303.272 92.972ZM360.195 131.5V67.5H377.091V131.5H360.195ZM368.643 57.132C366.083 57.132 363.822 56.1933 361.859 54.316C359.896 52.3533 358.915 50.0493 358.915 47.404C358.915 44.7587 359.896 42.4973 361.859 40.62C363.822 38.6573 366.083 37.676 368.643 37.676C371.288 37.676 373.55 38.6573 375.427 40.62C377.39 42.4973 378.371 44.7587 378.371 47.404C378.371 50.0493 377.39 52.3533 375.427 54.316C373.55 56.1933 371.288 57.132 368.643 57.132ZM399.071 131.5V61.1C399.071 54.2733 400.82 48.9827 404.319 45.228C407.818 41.388 413.151 39.468 420.319 39.468C422.794 39.468 425.396 39.8947 428.127 40.748C430.943 41.6013 433.503 42.6253 435.807 43.82L429.535 55.98C428.17 55.2973 426.932 54.7853 425.823 54.444C424.714 54.1027 423.69 53.932 422.751 53.932C420.447 53.932 418.74 54.7427 417.631 56.364C416.522 57.9 415.967 60.4173 415.967 63.916V131.5H399.071ZM388.447 81.068V67.5H431.711V81.068H388.447ZM455.721 158.636C453.417 158.636 450.857 158.167 448.041 157.228C445.31 156.375 442.878 155.351 440.745 154.156L447.017 140.46C448.468 141.228 449.79 141.825 450.985 142.252C452.265 142.764 453.374 143.02 454.313 143.02C456.105 143.02 457.684 142.508 459.049 141.484C460.414 140.545 461.524 139.137 462.377 137.26L469.929 119.468L490.281 67.5H508.841L479.785 137.004C477.993 141.271 476.116 145.025 474.153 148.268C472.19 151.596 469.758 154.156 466.857 155.948C464.041 157.74 460.329 158.636 455.721 158.636ZM465.449 131.5L436.137 67.5H454.697L476.073 119.468L481.577 131.5H465.449Z" fill="#0BB6E0"/>
</svg>
